<svg width="36" height="36" viewBox="0 0 36 36" fill="none" xmlns="http://www.w3.org/2000/svg">
<path d="M24.0012 17.4977L24.0014 17.4973C24.2534 16.8893 24.1134 16.1906 23.6489 15.7261L19.1489 11.2261L18.7954 11.5796L19.1489 11.2261C18.8322 10.9094 18.4155 10.75 18 10.75C17.5845 10.75 17.1678 10.9094 16.8511 11.2261L12.3511 15.7261C11.8866 16.1906 11.7466 16.8893 11.9986 17.4973L11.9988 17.4977C12.2505 18.1036 12.8431 18.5 13.5 18.5C14.4665 18.5 15.25 19.2835 15.25 20.25V22.5C15.25 24.0181 16.4819 25.25 18 25.25C19.5181 25.25 20.75 24.0181 20.75 22.5V20.25C20.75 19.2835 21.5335 18.5 22.5 18.5C23.1569 18.5 23.7495 18.1036 24.0012 17.4977ZM27.0347 11.3047C27.6504 12.9747 28.8613 14.4113 30.2631 15.444C32.094 16.7928 33.25 18.9583 33.25 21.375C33.25 25.4414 29.9414 28.75 25.875 28.75H11.25C6.56377 28.75 2.75 24.9362 2.75 20.25C2.75 17.2871 4.29418 14.6008 6.70773 13.0735C7.86909 12.3386 8.86113 11.3096 9.51026 10.0827C11.1415 6.99947 14.3505 5 18 5C22.1392 5 25.6789 7.62752 27.0347 11.3047Z" fill="url(#paint0_linear_8_112)" stroke="url(#paint1_linear_8_112)"/>
<defs>
<linearGradient id="paint0_linear_8_112" x1="1.17439" y1="16.875" x2="35.0561" y2="16.875" gradientUnits="userSpaceOnUse">
<stop stop-color="#1E58FC"/>
<stop offset="0.346358" stop-color="#A427EB"/>
<stop offset="0.502868" stop-color="#D914E4"/>
<stop offset="0.720701" stop-color="#E10FA3"/>
<stop offset="1" stop-color="#F10419"/>
</linearGradient>
<linearGradient id="paint1_linear_8_112" x1="1.17439" y1="16.875" x2="35.0561" y2="16.875" gradientUnits="userSpaceOnUse">
<stop stop-color="#1E58FC"/>
<stop offset="0.346358" stop-color="#A427EB"/>
<stop offset="0.502868" stop-color="#D914E4"/>
<stop offset="0.720701" stop-color="#E10FA3"/>
<stop offset="1" stop-color="#F10419"/>
</linearGradient>
</defs>
</svg>
