<svg width="300" height="299" viewBox="0 0 300 299" fill="none" xmlns="http://www.w3.org/2000/svg">
<g clip-path="url(#clip0_8_2)">
<ellipse cx="150" cy="149.5" rx="150" ry="149.5" fill="#292929"/>
<path fill-rule="evenodd" clip-rule="evenodd" d="M135.227 12.009C26.6049 23.601 -26.7231 148.896 40.1159 235.474C58.9489 259.869 90.8799 279.756 120.578 285.587C185.68 298.369 247.603 268.912 276.558 211.388C293.934 176.87 295.758 135.915 281.506 100.281C257.495 40.245 199.36 5.164 135.227 12.009ZM163.637 20.786C213.644 24.841 258.104 59.993 274.805 108.68C305.491 198.133 233.897 287.217 138.067 278.823C58.6299 271.864 4.07092 196.105 23.5529 119.813C35.8339 71.72 72.0869 35.455 119.237 24.099C128.656 21.83 130.611 21.497 137.39 21.011C140.712 20.773 144.133 20.523 144.992 20.456C149.272 20.123 157.19 20.263 163.637 20.786ZM141.672 26.702C49.1629 33.632 -4.20708 135.363 43.4329 213.961C82.0719 277.708 171.562 292.968 230.178 245.806C281.68 204.366 291.005 133.788 252.269 78.602C227.497 43.31 185.163 23.444 141.672 26.702ZM162.351 42.69C196.827 47.727 221.935 62.86 240.62 89.863C248.127 100.712 255.517 117.588 257.688 128.84L258.111 131.031L261.122 131.255C270.027 131.916 271.614 133.837 272.02 144.443C272.398 154.345 269.563 158.474 261.909 159.168C260.074 159.335 259.641 159.507 259.641 160.068C259.641 163.373 255.381 182.104 253.339 187.781C238.42 229.243 195.89 258.484 150.504 258.484C121.835 258.484 90.2909 244.925 70.9399 224.284C54.5019 206.75 42.4529 179.951 42.4529 160.921V158.575L39.9579 158.308C37.0129 157.993 33.0089 155.866 31.8329 153.992C30.6959 152.179 30.9209 135.959 32.1019 134.654C33.4649 133.148 36.4729 131.908 39.8389 131.466C44.0989 130.906 43.8799 131.015 44.1939 129.316C45.2299 123.717 48.3529 114.183 51.5299 106.922C53.3889 102.671 54.1989 101.06 57.0239 95.984C66.0419 79.783 82.9709 63.642 99.7969 55.203C121.118 44.51 143.781 39.977 162.351 42.69ZM147.922 52.43V58.875H150.656H153.391V53.048C153.391 45.685 153.517 45.984 150.419 45.984H147.922V52.43ZM147.19 66.08C145.045 66.775 143.344 68.38 142.843 70.181C139.429 82.471 151.55 90.884 158.15 80.807L160.106 77.82L159.853 74.695C159.261 67.381 154.072 63.852 147.19 66.08ZM126.633 89.832C117.066 99.282 116.925 99.499 119.699 100.487C123.224 101.743 125.465 102.725 126.536 103.482L127.61 104.241L135.325 96.58L143.039 88.919L142.063 88.273C140.178 87.026 137.464 83.961 137.001 82.558C136.281 80.378 136.017 80.563 126.633 89.832ZM164.955 82.738C163.909 84.509 161.999 86.591 160.269 87.846L158.748 88.949L166.239 96.464L173.729 103.98L175.572 102.945C176.585 102.377 178.82 101.353 180.539 100.672C182.258 99.99 183.749 99.348 183.853 99.245C184.059 99.04 166.336 81.531 165.923 81.531C165.783 81.531 165.348 82.074 164.955 82.738ZM102.867 105.411C89.4679 107.133 76.2469 117.636 71.1119 130.639C58.5009 162.573 89.1019 194.871 120.383 182.642C126.516 180.244 131.806 176.016 147.919 160.633C150.395 158.27 155.4 153.523 159.043 150.086C162.686 146.648 168.23 141.375 171.363 138.367C183.34 126.869 187.292 124.784 195.958 125.386C215.9 126.772 221.068 154.999 203.049 164.124C193.932 168.741 186.073 166.266 175.096 155.317C171.672 151.903 168.843 149.109 168.809 149.109C168.774 149.109 167.204 150.823 165.319 152.918C163.435 155.013 160.551 158.11 158.911 159.801L155.93 162.876L160.617 167.356C173.868 180.021 176.436 181.716 186.336 184.326C204.848 189.208 226.906 175.48 231.94 155.945C238.454 130.669 219.312 105.171 193.82 105.167L187.961 105.166L183.112 106.833C175.149 109.571 173.681 110.574 162.788 120.72C158.825 124.41 152.939 129.891 149.707 132.898C146.475 135.906 139.554 142.498 134.327 147.547C117.351 163.943 116.542 164.563 110.509 165.811C100.744 167.83 90.0009 161.382 87.5869 152.055C82.0879 130.805 106.87 116.168 121.791 131.852C123.361 133.502 126.135 136.4 127.956 138.292L131.267 141.732L137.667 135.362C145.843 127.223 145.482 127.989 142.407 125.317C141.036 124.126 137.365 120.681 134.25 117.661C123.162 106.916 115.236 103.822 102.867 105.411ZM39.7539 137.341C37.6869 137.919 36.0719 145.421 37.1169 149.586C37.7349 152.048 46.3489 154.029 48.4149 152.184C50.3939 150.416 50.0449 139.904 47.9369 137.797C47.1109 136.97 42.0819 136.69 39.7539 137.341ZM254.64 138.358C253.016 140.422 252.868 148.714 254.403 151.648C255.665 154.06 262.363 153.861 264.115 151.361C265.074 149.99 264.987 139.762 264.006 138.55C262.774 137.029 255.797 136.886 254.64 138.358ZM60.0309 140.777C59.2789 140.852 58.1189 141.003 57.4519 141.112L56.2399 141.311L55.9859 144.722C55.8459 146.598 55.6239 148.616 55.4919 149.207L55.2529 150.281H58.5349H61.8169V145.398C61.8169 142.713 61.7229 140.544 61.6079 140.578C61.4929 140.613 60.7829 140.702 60.0309 140.777ZM239.719 145.789V150.281H243.671H247.623L247.369 147.254C247.23 145.589 247.018 143.567 246.898 142.762L246.681 141.297H243.2H239.719V145.789ZM122.773 188.756C121.08 189.468 118.671 190.277 117.42 190.555L115.145 191.06L124.601 200.456C129.801 205.623 134.345 210.291 134.697 210.828L135.338 211.805L135.622 210.242C136.034 207.981 137.658 205.168 139.568 203.407L141.23 201.875L135.695 196.488C126.634 187.67 126.336 187.389 126.089 187.427C125.958 187.447 124.466 188.045 122.773 188.756ZM167.938 194.329C160.343 201.707 160.156 201.993 162.015 203.367C163.256 204.285 165.5 207.486 165.5 208.34C165.5 208.606 165.677 209.29 165.893 209.858L166.287 210.893L170.288 207.267C175.765 202.303 181.503 196.693 184.27 193.597L186.578 191.014L183.363 190.374C181.595 190.022 179.072 189.207 177.757 188.562C176.441 187.918 175.299 187.393 175.218 187.395C175.137 187.398 171.861 190.518 167.938 194.329ZM148.189 205.128C143.754 206.341 141.924 209.71 142.124 216.292L142.258 220.675L143.82 222.019C148.677 226.197 153.952 226.415 157.417 222.579C159.34 220.45 159.506 220.025 159.807 216.461C160.464 208.678 154.934 203.284 148.189 205.128ZM148.159 233.875C148.048 234.842 147.905 239.412 147.842 244.031L147.727 252.43L150.499 252.543L153.271 252.657L153.526 249.065C153.667 247.09 153.781 242.469 153.782 238.795V232.117H151.071H148.361L148.159 233.875Z" fill="#FAFAFA"/>
</g>
<defs>
<clipPath id="clip0_8_2">
<rect width="300" height="299" fill="white"/>
</clipPath>
</defs>
</svg>
